# xmcd CD database file
#
# Track frame offsets:
#	150
#	17136
#	32950
#
# Disc length: 530 seconds
#
# Revision: 0
# Processed by: cddbd v1.5.2PL0 Copyright (c) Steve Scherf et al.
# Submitted via: CDex 1.51
#
DISCID=1e021003
DTITLE=Sonny Burgess - Sonny Burgess
DYEAR=2010
DGENRE=Country
TTITLE0=Cowboy Cool
TTITLE1=Too Many Horses
TTITLE2=Star Bangled Banner
EXTD=YEAR: 2010
EXTT0=
EXTT1=
EXTT2=
PLAYORDER=
